# xmcd
#
# Track frame offsets: 
#        150
#        22188
#        39093
#        54837
#        69773
#        84251
#        99432
#        117297
#        131181
#        148496
#        165333
#        186149
#        206832
#        224705
#        241413
#        274893
#        293307
#        312195
#
# Disc length: 4428 seconds
#
# Revision: 0
# Processed by: cddbd v1.5.2PL0 Copyright (c) Steve Scherf et al.
# Submitted via: ExactAudioCopy v1.0b4
#
DISCID=04114a12
DTITLE=Shawn Pittman - Movin and Groovin
DYEAR=1997
DGENRE=Blues
TTITLE0=Movin'
TTITLE1=Watch Out, Baby
TTITLE2=She's Evil
TTITLE3=Yes She Does
TTITLE4=Give Me Back My Wig
TTITLE5=Cruisin'
TTITLE6=One Thing On My Mind
TTITLE7=That First Drink
TTITLE8=Something to Remember You By
TTITLE9=One of These Days
TTITLE10=Something's Gotta Give
TTITLE11=Just a Game
TTITLE12=East Side Groove
TTITLE13=Distress Signal
TTITLE14=I Smell Trouble
TTITLE15=Deals You Made
TTITLE16=Feast or Famine
TTITLE17=Reap What You Saw
EXTD=
EXTT0=
EXTT1=
EXTT2=
EXTT3=
EXTT4=
EXTT5=
EXTT6=
EXTT7=
EXTT8=
EXTT9=
EXTT10=
EXTT11=
EXTT12=
EXTT13=
EXTT14=
EXTT15=
EXTT16=
EXTT17=
PLAYORDER=
